<?xml version="1.0" encoding="UTF-8"?>
<svg version="1.1" xmlns="http://www.w3.org/2000/svg" width="1563" height="1563">
<path d="M0 0 C60.72 0 121.44 0 184 0 C182.59973477 3.50066309 181.71413936 5.5953703 179.6875 8.5 C147.5058629 58.86711841 183.27693173 163.21520138 194.97412109 216.35498047 C195.14699646 217.13750183 195.31987183 217.92002319 195.49798584 218.72625732 C195.97226232 220.8743694 196.44284476 223.02325825 196.91259766 225.17236328 C209.66422045 296.77541446 209.66422045 296.77541446 246.8125 355 C252.06995195 356.64939669 256.29378391 356.19218565 261.33203125 353.97265625 C274.93004248 345.98063943 279.46487246 328.35484527 283.41015625 314.04296875 C289.83296348 288.95703056 292.11667701 261.89468086 292.203125 236.0859375 C292.21005841 234.67422456 292.21705354 233.26251192 292.22410583 231.85079956 C292.24328444 227.35886315 292.24802254 222.86697252 292.25 218.375 C292.25073643 217.61301804 292.25147285 216.85103607 292.2522316 216.06596375 C292.28074815 179.91268718 290.33216812 145.74634126 280.0625 110.875 C279.48472647 108.89650056 278.90700928 106.91798467 278.3293457 104.93945312 C265.13469895 50.51324703 265.13469895 50.51324703 236.65234375 3.8203125 C235 2 235 2 235 0 C295.39 0 355.78 0 418 0 C416.51072944 3.7231764 415.34084815 6.11372689 413.1875 9.3125 C410.45145872 13.77868502 408.72874441 18.21591049 407.1875 23.1875 C406.98084717 23.85241455 406.77419434 24.5173291 406.5612793 25.20239258 C383.36935949 103.68837256 428.6731545 237.07194816 465 333 C465.29648437 333.58587891 465.59296875 334.17175781 465.8984375 334.77539062 C471.99566912 347.26443577 471.99566912 347.26443577 482.82421875 355.37109375 C488.21916785 356.93049556 493.16200453 355.68431758 498 353.0625 C501.03574863 351.33157451 501.03574863 351.33157451 502 349 C502.66 349 503.32 349 504 349 C504.2475 348.34 504.495 347.68 504.75 347 C506 344 506 344 507.875 340.625 C527.05077911 302.48809602 514.59273846 250.05494577 502.265625 211.70703125 C496.55179622 194.48826364 489.36216813 177.82630438 482.31103516 161.12524414 C439.52656444 59.75375453 439.52656444 59.75375453 455.2890625 19.7265625 C459.05921153 11.56126647 463.20352805 5.24364307 471.76521301 1.84088135 C478.95776982 -0.64855116 486.06463766 -0.53205442 493.5690918 -0.45410156 C495.10764028 -0.45297096 496.64619092 -0.45361109 498.18473816 -0.45587158 C502.3287757 -0.45701138 506.47234278 -0.43362231 510.61627173 -0.40557575 C514.95906626 -0.38043856 519.30187356 -0.37821045 523.64472961 -0.37347412 C531.85388764 -0.36108033 540.06283061 -0.32830783 548.27189428 -0.28807616 C557.62381523 -0.24324598 566.97574687 -0.22134323 576.32774866 -0.20129442 C595.551954 -0.15957168 614.77595966 -0.08929018 634 0 C633.67 0.99 633.34 1.98 633 3 C632.34 3 631.68 3 631 3 C630.74476563 3.56332031 630.48953125 4.12664063 630.2265625 4.70703125 C628.8473415 7.28538389 627.184968 9.39078762 625.375 11.6875 C608.95815848 34.19779981 602.48355015 64.06397779 594.75909424 90.41412354 C593.9541067 93.15633687 593.14499707 95.89731326 592.33544922 98.63818359 C567.41871921 183.10797904 547.90164968 268.4610527 531.8125 355 C531.60535244 356.11193159 531.60535244 356.11193159 531.39402008 357.24632645 C527.56541085 377.77588887 527.56541085 377.77588887 524.13671875 398.375 C524.01577347 399.12281738 523.89482819 399.87063477 523.7702179 400.64111328 C521.55896159 415.45391231 523.7418123 427.90370481 531 441 C531.66 442.32 532.32 443.64 533 445 C467.99 445 402.98 445 336 445 C337.05887751 442.88224498 338.122081 440.7664027 339.21875 438.66796875 C350.95105942 415.95450387 343.52143348 391.29338665 339.13618469 367.41768646 C338.74672228 365.29463237 338.35937359 363.17120193 337.97253418 361.04766846 C331.75436808 326.94546511 324.91716373 292.96622436 318 259 C316.35005314 262.00056961 315.48531484 264.76397454 314.78588867 268.1105957 C314.56726669 269.14501297 314.34864471 270.17943024 314.12339783 271.24519348 C313.77421043 272.94333443 313.77421043 272.94333443 313.41796875 274.67578125 C313.16725113 275.87688034 312.91653351 277.07797943 312.65821838 278.31547546 C311.97106417 281.62161908 311.28988972 284.92886592 310.61271667 288.23706055 C310.18748445 290.31257588 309.76015833 292.38765095 309.33239746 294.46264648 C304.50300835 317.91956065 300.04347653 341.43957367 295.75 365 C295.60757748 365.78110264 295.46515495 366.56220528 295.3184166 367.36697769 C294.36902526 372.57713785 293.42473556 377.78820276 292.484375 383 C292.36331453 383.66959936 292.24225407 384.33919872 292.1175251 385.02908897 C291.77707246 386.91496067 291.43878357 388.8012226 291.10058594 390.6875 C290.91107361 391.74324219 290.72156128 392.79898437 290.52630615 393.88671875 C287.79855062 410.02232748 287.5581726 425.49060916 296 440 C296.53625 440.52464844 297.0725 441.04929687 297.625 441.58984375 C299 443 299 443 299 445 C264.35 445 229.7 445 194 445 C198 436 198 436 201.53125 434.38671875 C202.84676277 434.11495114 204.17091521 433.88234641 205.5 433.6875 C210.43051705 432.82106933 213.76421446 432.10024785 217 428 C218.14814997 425.70370006 218.30769809 423.92301914 218.5625 421.375 C218.64628906 420.55773437 218.73007812 419.74046875 218.81640625 418.8984375 C218.87699219 418.27195312 218.93757812 417.64546875 219 417 C217.68 416.67 216.36 416.34 215 416 C215 415.34 215 414.68 215 414 C214.195625 413.9175 213.39125 413.835 212.5625 413.75 C208.73677323 412.94458384 205.64831419 411.56450121 202.125 409.921875 C199.77845435 408.90388828 197.5364508 408.32728397 195 408 C195.66 407.67 196.32 407.34 197 407 C196.65213292 405.02463255 196.65213292 405.02463255 196 403 C195.34 402.67 194.68 402.34 194 402 C193.01665245 399.14829211 193 397.10359391 193 394 C192.34 394 191.68 394 191 394 C191 390.71592778 193.74674648 389.25325352 196 387 C197.48755758 384.93091903 198.92617514 382.82572987 200.3125 380.6875 C201.00988281 379.61886719 201.70726562 378.55023437 202.42578125 377.44921875 C202.94527344 376.64097656 203.46476563 375.83273437 204 375 C203.06981474 373.53699018 202.13055973 372.07974421 201.1875 370.625 C200.66542969 369.81289063 200.14335937 369.00078125 199.60546875 368.1640625 C198.01562803 365.76649759 198.01562803 365.76649759 195 364 C190.38100705 364.19245804 186.73300696 365.44186258 182.4375 367.125 C175.45409496 369.7058236 175.45409496 369.7058236 171 368 C170.15953125 367.78730469 169.3190625 367.57460938 168.453125 367.35546875 C164.88353941 366.00931147 163.32294514 365.08127996 161 362 C159.39866561 354.83915373 159.74644638 347.29383074 160 340 C158.37964844 339.78730469 158.37964844 339.78730469 156.7265625 339.5703125 C153 339 153 339 149.375 337.875 C145.87699736 336.96811043 144.37526058 336.88929125 141 338 C139.49615342 339.73850974 139.49615342 339.73850974 138.5 342 C138.0875 342.804375 137.675 343.60875 137.25 344.4375 C136.8375 345.283125 136.425 346.12875 136 347 C135.1830458 348.67475612 134.35029587 350.34192305 133.5 352 C132.95859375 353.11375 132.95859375 353.11375 132.40625 354.25 C131 356 131 356 128.60717773 356.7434082 C123.29660079 357.26606167 119.14196651 357.49030889 114.58935547 354.32275391 C112.08141834 352.08459691 109.75433266 349.74755787 107.4375 347.3125 C106.61958984 346.50876953 105.80167969 345.70503906 104.95898438 344.87695312 C99.05852512 338.84833018 99.05852512 338.84833018 98.77368164 334.71948242 C98.8483667 333.82205322 98.92305176 332.92462402 99 332 C98.34 331.67 97.68 331.34 97 331 C98.65 328.69 100.3 326.38 102 324 C106.440725 323.92070134 108.83712476 323.98096473 112.2421875 326.96484375 C115.0829957 330.17506108 117.62207224 333.43310836 120 337 C124.46635712 336.34638676 128.67060054 335.26638795 133 334 C132.91298828 332.12054687 132.91298828 332.12054687 132.82421875 330.203125 C132.77731522 328.5521206 132.73181569 326.90107589 132.6875 325.25 C132.6246582 324.0125 132.6246582 324.0125 132.56054688 322.75 C132.47956555 318.73332621 132.50105368 316.67599178 134.9375 313.375 C139.30267936 311.41512355 142.67651566 312.01819505 147.3125 312.75 C148.14845703 312.8634375 148.98441406 312.976875 149.84570312 313.09375 C151.9000287 313.37548608 153.95050811 313.68502098 156 314 C157.98 310.7 159.96 307.4 162 304 C161.0925 302.948125 160.185 301.89625 159.25 300.8125 C158.43595703 299.84376953 158.43595703 299.84376953 157.60546875 298.85546875 C155.92175671 296.85645401 155.92175671 296.85645401 153.5625 294.625 C151.57265035 291.28205259 151.27701293 289.12076717 151.84765625 285.29296875 C154.3366345 280.34032388 160.11220707 278.13198261 165 276 C165.66 276 166.32 276 167 276 C167 271.05 167 266.1 167 261 C165.87980469 260.89042969 164.75960937 260.78085937 163.60546875 260.66796875 C162.13273778 260.50850107 160.66008535 260.34830683 159.1875 260.1875 C158.08051758 260.08211914 158.08051758 260.08211914 156.95117188 259.97460938 C151.4721044 259.35480536 151.4721044 259.35480536 149.09765625 257.5703125 C148.73542969 257.05210937 148.37320313 256.53390625 148 256 C147.4225 255.236875 146.845 254.47375 146.25 253.6875 C144.6083841 250.15802581 144.92288857 248.7339863 146 245 C146.71840921 243.47405562 147.44835211 241.95350741 148.1875 240.4375 C149.80476434 236.97030683 149.80476434 236.97030683 149.5625 233.1875 C147.69376767 230.57127474 145.61227392 228.85608936 143 227 C138.48001443 228.63133282 135.09627837 230.98748087 131.28125 233.85546875 C128.28606834 235.35818832 127.16508334 235.02865209 124 234 C122.80246094 233.64292969 121.60492188 233.28585937 120.37109375 232.91796875 C116.68436197 230.82041915 115.82811011 229.41512965 114.60742188 225.40429688 C114.42759766 224.71400391 114.24777344 224.02371094 114.0625 223.3125 C113.85560547 222.61060547 113.64871094 221.90871094 113.43554688 221.18554688 C112.93201012 219.46415378 112.46252321 217.73286345 112 216 C108.04 215.67 104.08 215.34 100 215 C99.566875 216.32 99.13375 217.64 98.6875 219 C98.40390625 219.81855469 98.1203125 220.63710938 97.828125 221.48046875 C96.97969422 223.93293574 96.97969422 223.93293574 96.484375 226.23828125 C95.58071625 229.66572978 94.75808478 231.45363259 91.83203125 233.5625 C87.03624714 235.88421091 87.03624714 235.88421091 84 236 C79.92079484 233.99195408 77.70711013 232.60455626 75.85327148 228.39787292 C74.85432588 225.01965066 74.04053318 221.637601 73.2734375 218.19921875 C72.79855005 216.23238807 72.32365249 214.26555979 71.84833145 212.29883385 C71.34810711 210.20698572 70.86123341 208.11243153 70.37811279 206.01657104 C69.36913006 201.64332975 68.32104342 197.28009396 67.26416016 192.91821289 C66.90766795 191.44572845 66.55119214 189.97324004 66.19473267 188.50074768 C66.01812733 187.77150148 65.84152199 187.04225529 65.65956497 186.29091072 C65.12390232 184.07358124 64.59166342 181.85545564 64.06039429 179.6370697 C61.03416217 167.01535268 57.7921529 154.45936434 54.375 141.9375 C54.11501221 140.98313049 53.85502441 140.02876099 53.5871582 139.04547119 C36.10984763 65.23114863 36.10984763 65.23114863 0 0 Z " fill="#9C74EB" transform="translate(48,573)"/>
<path d="M0 0 C18.95662661 -0.47237531 36.77051833 4.00157127 54.94970703 8.81225586 C63.07064434 10.95964541 71.17205884 13.03516765 79.41796875 14.66015625 C80.16119385 14.80767334 80.90441895 14.95519043 81.67016602 15.10717773 C105.682511 19.64492173 125.38924729 17.38488494 146.72558594 5.31347656 C152.22390513 2.24699629 156.44963737 0.27984175 162.79296875 0.16015625 C167.65613767 1.81179852 169.48720173 3.66553435 171.79296875 8.16015625 C178.17604148 33.45005202 162.46027866 65.70341616 150.234375 86.79150391 C147.13229375 91.88913133 143.63358392 96.59168255 139.79296875 101.16015625 C139.09171875 102.08570313 138.39046875 103.01125 137.66796875 103.96484375 C137.04921875 104.68929687 136.43046875 105.41375 135.79296875 106.16015625 C135.13296875 106.16015625 134.47296875 106.16015625 133.79296875 106.16015625 C133.79296875 106.82015625 133.79296875 107.48015625 133.79296875 108.16015625 C131.91550836 109.87106774 130.05215883 111.42910325 128.04296875 112.97265625 C127.46039307 113.42116943 126.87781738 113.86968262 126.27758789 114.33178711 C110.30322496 126.2009824 92.03091329 125.62570656 73.10546875 122.97265625 C45.01817654 118.65233229 20.01562794 106.25916621 -4.33203125 92.03515625 C-25.06379114 80.11866764 -51.61997287 67.46977445 -76.19140625 72.80859375 C-85.60226646 76.2280678 -91.46419617 82.37825149 -95.89453125 91.21484375 C-102.43183958 105.88487495 -103.55099151 120.59432911 -103.46777344 136.42016602 C-103.45699773 138.8552309 -103.4677646 141.28956588 -103.48046875 143.72460938 C-103.93408998 159.23805491 -103.93408998 159.23805491 -98.20703125 173.16015625 C-88.72952817 173.00478735 -83.14646843 168.63987916 -75.58984375 163.31640625 C-56.32331215 150.2814828 -33.38302396 149.29516064 -11.13720703 153.50976562 C6.38937103 157.40001758 22.91668064 165.70230115 39.03564453 173.39916992 C46.36410432 176.87247723 53.69063856 179.98326855 61.38671875 182.55859375 C62.11587997 182.80268478 62.8450412 183.04677582 63.59629822 183.29826355 C74.90481861 186.94424399 86.6175808 189.1136641 97.79296875 184.16015625 C102.63204381 181.58986872 106.11552204 178.17691048 109.78515625 174.1484375 C111.74910744 172.20359089 113.22143244 171.12838652 115.79296875 170.16015625 C119.39338259 170.23516487 121.19473002 170.66447273 123.98046875 172.97265625 C131.20065738 185.67022935 130.17193711 202.06693569 126.77026367 215.83886719 C123.39226518 227.99010272 117.29839724 238.86625609 108.79296875 248.16015625 C108.19097656 248.85367188 107.58898438 249.5471875 106.96875 250.26171875 C94.35758174 263.95686583 75.84650735 270.56427755 57.5703125 271.37890625 C27.11579242 272.24791108 3.40304424 258.50693921 -18.26773071 238.23220825 C-23.06817775 233.56981707 -27.73433775 228.77459613 -32.39453125 223.97265625 C-51.39113384 202.74684877 -51.39113384 202.74684877 -76.546875 192.02734375 C-77.83271484 192.03121094 -77.83271484 192.03121094 -79.14453125 192.03515625 C-79.99917969 192.03257812 -80.85382813 192.03 -81.734375 192.02734375 C-84.07537849 192.15308485 -86.00721144 192.35046648 -88.20703125 193.16015625 C-91.66065608 200.06740591 -90.70570871 207.07294213 -88.58203125 214.22265625 C-87.80828894 216.54121511 -87.01573854 218.8535603 -86.20703125 221.16015625 C-85.81773438 222.31902344 -85.4284375 223.47789062 -85.02734375 224.671875 C-73.79660825 256.47014091 -56.42158197 284.82724031 -33.20703125 309.16015625 C-32.39621094 310.02382813 -31.58539062 310.8875 -30.75 311.77734375 C-7.30989377 336.08840707 25.67941436 352.76120118 59.73046875 353.41015625 C82.32962636 352.9818556 105.55398526 346.86938635 121.73046875 330.22265625 C122.41109375 329.54203125 123.09171875 328.86140625 123.79296875 328.16015625 C124.45296875 328.16015625 125.11296875 328.16015625 125.79296875 328.16015625 C126.02757812 327.62390625 126.2621875 327.08765625 126.50390625 326.53515625 C128.15922174 323.48536287 130.26647365 320.86669345 132.41796875 318.16015625 C135.79355746 313.85862904 138.94730327 309.50761474 141.91796875 304.91015625 C151.4651307 290.36761057 151.4651307 290.36761057 158.79296875 288.16015625 C161.64330893 287.90537724 164.09071815 288.20842019 166.79296875 289.16015625 C173.83974401 296.57781442 173.30763808 308.25100031 173.1015625 317.86328125 C171.61013707 351.10783481 156.34209779 383.24663749 134.79296875 408.16015625 C133.8118431 409.38775981 132.83229396 410.61662799 131.85546875 411.84765625 C131.17484375 412.61078125 130.49421875 413.37390625 129.79296875 414.16015625 C129.13296875 414.16015625 128.47296875 414.16015625 127.79296875 414.16015625 C127.46296875 415.15015625 127.13296875 416.14015625 126.79296875 417.16015625 C124.32249647 419.70803236 121.52246699 421.89544736 118.79296875 424.16015625 C117.74302734 425.07474609 117.74302734 425.07474609 116.671875 426.0078125 C85.3628205 452.43330564 46.83940684 460.40919746 6.79296875 458.16015625 C-1.3306115 457.42111827 -9.26202204 455.98290929 -17.20703125 454.16015625 C-18.10566895 453.95648437 -19.00430664 453.7528125 -19.93017578 453.54296875 C-39.24591553 448.99395935 -57.03158358 440.60862353 -73.20703125 429.16015625 C-74.72876953 428.11214844 -74.72876953 428.11214844 -76.28125 427.04296875 C-119.3762654 395.78962006 -142.13631682 344.6960386 -150.83691406 293.45019531 C-161.38662611 226.577798 -157.62638916 154.73170206 -127.20703125 93.16015625 C-126.81902344 92.3717334 -126.43101563 91.58331055 -126.03125 90.77099609 C-120.82826198 80.30927376 -115.23052465 70.52087939 -108.20703125 61.16015625 C-107.80436035 60.61085449 -107.40168945 60.06155273 -106.98681641 59.49560547 C-94.30019915 42.23767708 -79.07749131 27.50847306 -60.20703125 17.16015625 C-59.18351562 16.59554687 -58.16 16.0309375 -57.10546875 15.44921875 C-39.34075833 6.09722177 -20.04488068 1.00102327 0 0 Z " fill="#9C73EB" transform="translate(1333.20703125,565.83984375)"/>
<path d="M0 0 C17.76220766 -0.59788637 35.39488264 4.13140441 52.41015625 8.65625 C78.25875602 15.53209634 78.25875602 15.53209634 104.84765625 17.53125 C106.09240723 17.51384766 106.09240723 17.51384766 107.36230469 17.49609375 C121.76363806 17.1137077 132.89093973 11.32019801 145.2734375 4.55859375 C150.49161131 1.77502669 155.31262096 -0.3871344 161.34765625 0.15625 C164.77898633 1.55419929 166.5601929 2.74239535 168.37890625 6.0078125 C175.44072636 23.9892989 166.55494914 47.43591057 159.34765625 64.15625 C153.53816781 77.14419544 146.45177031 89.1856021 137.34765625 100.15625 C136.33058594 101.39375 136.33058594 101.39375 135.29296875 102.65625 C126.61445126 112.78633447 114.97745221 122.22880411 101.34765625 124.15625 C67.88830861 125.58500069 40.22436633 113.46537581 11.07617188 98.47363281 C-31.30665788 75.55466042 -31.30665788 75.55466042 -78.03515625 72.9453125 C-82.41966049 74.47696598 -85.40783242 75.8356211 -88.65234375 79.15625 C-89.31234375 79.15625 -89.97234375 79.15625 -90.65234375 79.15625 C-91.06806641 79.9915625 -91.06806641 79.9915625 -91.4921875 80.84375 C-92.28861996 82.43125173 -93.09379097 84.0143904 -93.90625 85.59375 C-94.33808594 86.439375 -94.76992188 87.285 -95.21484375 88.15625 C-95.64925781 89.001875 -96.08367188 89.8475 -96.53125 90.71875 C-99.97105714 98.19763381 -99.18954256 106.49260845 -96.65234375 114.15625 C-92.62459528 122.95287535 -92.62459528 122.95287535 -85.65234375 129.15625 C-85.65234375 129.81625 -85.65234375 130.47625 -85.65234375 131.15625 C-85.11738281 131.41019531 -84.58242188 131.66414062 -84.03125 131.92578125 C-82.27340142 132.83501327 -80.5566565 133.82472679 -78.8671875 134.85546875 C-43.25036189 156.46329263 1.52989912 158.43463117 41.94000244 162.890625 C77.43331399 166.80643335 110.96842762 174.38753055 137.77734375 199.76171875 C139.57944012 201.44057144 141.4507418 203.04670974 143.3671875 204.59375 C162.78613063 221.28945995 174.41041505 251.10483706 176.34765625 276.15625 C178.32626813 320.52877205 168.18073091 367.29944362 137.83740234 401.35107422 C136.35503381 402.96676481 134.85419664 404.56310967 133.34765625 406.15625 C132.87924316 406.66559082 132.41083008 407.17493164 131.92822266 407.69970703 C102.74609117 439.33650512 60.75791349 455.374829 18.34765625 458.15625 C-1.27639398 458.92547959 -20.44651461 458.68736494 -39.65234375 454.15625 C-40.49297363 453.96321289 -41.33360352 453.77017578 -42.19970703 453.57128906 C-75.13245802 445.69845477 -105.98165892 426.13994135 -125.02734375 397.8359375 C-132.77067579 385.06688515 -140.37978559 366.62711895 -137.05859375 351.44140625 C-133.57094978 341.68502289 -126.5876714 334.51519943 -118.65234375 328.15625 C-117.76289062 327.41890625 -116.8734375 326.6815625 -115.95703125 325.921875 C-93.13265064 307.59232126 -57.16767697 284.78404466 -26.85546875 285.76953125 C-18.28920813 286.80375052 -13.29052586 290.73845744 -7.90234375 297.28125 C-4.25405103 305.67232326 -5.86603942 315.24296667 -7.02734375 324.03125 C-10.4149094 352.29377779 -13.69930921 383.40667338 4.93359375 407.1796875 C13.71446833 416.98856691 28.51981918 421.42764652 41.34765625 422.15625 C61.41237888 423.18843774 77.93501855 418.03745157 93.34765625 405.15625 C94.02828125 404.59035156 94.70890625 404.02445313 95.41015625 403.44140625 C105.00389855 394.68283348 110.94915676 381.44178397 111.69140625 368.56640625 C112.24710592 350.80538982 108.34443751 334.2431695 96.09765625 320.84375 C83.52693257 307.74274235 68.88444076 298.93413592 52.09375 292.27734375 C50.80803101 291.76595352 50.80803101 291.76595352 49.49633789 291.24423218 C40.67128386 287.79667031 31.68568294 284.93101365 22.63497925 282.14202881 C17.81473739 280.65344566 13.0051701 279.13111755 8.1953125 277.609375 C7.25128067 277.31090668 6.30724884 277.01243835 5.33460999 276.70492554 C-32.12176838 264.8266648 -70.78400072 250.79510653 -99.65234375 223.15625 C-100.77189453 222.13144531 -100.77189453 222.13144531 -101.9140625 221.0859375 C-116.33418718 207.44595918 -126.0275865 189.39255916 -130.65234375 170.15625 C-130.95011719 168.95355469 -131.24789062 167.75085938 -131.5546875 166.51171875 C-133.79107627 156.27444555 -133.96928351 145.96508529 -134.02734375 135.53125 C-134.03912659 134.49587097 -134.03912659 134.49587097 -134.05114746 133.4395752 C-134.17030577 119.97148722 -132.40768941 106.93429088 -127.96484375 94.15625 C-127.58573853 93.04624634 -127.58573853 93.04624634 -127.19897461 91.91381836 C-115.3075439 58.34831618 -89.94784323 30.01887419 -58.09375 14.22265625 C-39.50393242 5.39135962 -20.4751922 1.20619689 0 0 Z " fill="#9C73EB" transform="translate(979.65234375,565.84375)"/>
<path d="M0 0 C2.58635845 2.05789579 3.70798722 3.8544304 4.75 6.98046875 C4.84288628 8.4754079 4.88013449 9.97414471 4.88307858 11.47196388 C4.88731962 12.39751977 4.89156067 13.32307565 4.89593023 14.27667868 C4.89535103 15.80450163 4.89535103 15.80450163 4.89476013 17.3631897 C4.89828698 18.44406683 4.90181382 19.52494397 4.90544754 20.63857496 C4.91616617 24.27939929 4.91982113 27.92019748 4.92358398 31.56103516 C4.92988721 34.16440441 4.93665275 36.76777258 4.94384766 39.37113953 C4.95879568 44.98920983 4.97033686 50.60727879 4.97979546 56.22536087 C4.99367907 64.36671382 5.01487094 72.50803582 5.03822399 80.64936654 C5.07616439 93.88212243 5.11111597 107.11488397 5.14282227 120.34765625 C5.14472276 121.13999461 5.14662325 121.93233297 5.14858133 122.74868159 C5.17535064 133.96575777 5.19923881 145.18283825 5.22196633 156.39992325 C5.22356363 157.18801694 5.22516094 157.97611062 5.22680664 158.78808594 C5.22840011 159.57521373 5.22999357 160.36234153 5.23163532 161.17332168 C5.25848576 174.33929576 5.2929245 187.50523731 5.33346039 200.67117631 C5.35812734 208.78092935 5.37651409 216.89064751 5.386616 225.000432 C5.39494193 231.23476638 5.41349656 237.46903328 5.43567657 243.7033329 C5.4431052 246.24725271 5.44723028 248.79118482 5.44767189 251.33511543 C5.3844923 284.3634303 5.3844923 284.3634303 18.75 313.98046875 C19.74 315.46546875 19.74 315.46546875 20.75 316.98046875 C-28.75 316.98046875 -78.25 316.98046875 -129.25 316.98046875 C-127.69892459 313.87831792 -126.51584859 311.98587781 -124.375 309.41796875 C-112.91753179 294.38353485 -114.0989782 273.25539117 -114.10473633 255.35717773 C-114.10173959 253.49003025 -114.09833588 251.62288338 -114.09455872 249.7557373 C-114.08577011 244.71248633 -114.08338287 239.66925234 -114.08274293 234.62599444 C-114.08202987 231.47047485 -114.0798908 228.31495952 -114.07724571 225.15944099 C-114.06801159 214.13827365 -114.06390868 203.11711835 -114.06469727 192.09594727 C-114.06529858 181.84111864 -114.05473122 171.58634251 -114.0389536 161.33152717 C-114.02586348 152.50744043 -114.02051394 143.68337083 -114.02115268 134.85927445 C-114.02140709 129.59748836 -114.01858677 124.33574907 -114.00797462 119.0739727 C-113.99826802 114.12695049 -113.998232 109.18001958 -114.00549126 104.23299408 C-114.00653368 102.42305683 -114.00419462 100.61311381 -113.9981308 98.80318642 C-113.80015021 82.3137622 -113.80015021 82.3137622 -119.25 66.98046875 C-119.58 65.99046875 -119.91 65.00046875 -120.25 63.98046875 C-122.02811098 62.85857292 -122.02811098 62.85857292 -124.25 61.98046875 C-125.98428442 61.22121981 -127.71329827 60.44984457 -129.4375 59.66796875 C-130.31792969 59.27996094 -131.19835937 58.89195312 -132.10546875 58.4921875 C-134.25 56.98046875 -134.25 56.98046875 -135.17578125 54.5625 C-135.26279595 51.53530432 -135.09130627 50.38756724 -133.25 47.98046875 C-130.64453125 46.3671875 -130.64453125 46.3671875 -127.0625 44.66796875 C-126.37671875 44.33877441 -125.6909375 44.00958008 -124.984375 43.67041016 C-123.36358971 42.89258405 -121.74049386 42.11956302 -120.11572266 41.35009766 C-116.86982644 39.79877053 -113.64392092 38.20956674 -110.41796875 36.6171875 C-18.78009902 -8.50973237 -18.78009902 -8.50973237 0 0 Z " fill="#9C73EB" transform="translate(816.25,701.01953125)"/>
<path d="M0 0 C0.98002991 0.07874107 0.98002991 0.07874107 1.9798584 0.15907288 C9.20683446 0.76549995 16.41591214 1.56582093 23.6171875 2.4206543 C25.86903229 2.68657939 28.12190907 2.94213907 30.375 3.19726562 C31.833406 3.36786953 33.2917422 3.5390714 34.75 3.7109375 C36.04228516 3.86167725 37.33457031 4.01241699 38.66601562 4.16772461 C48.08535582 5.64903216 48.08535582 5.64903216 51.78125 8.87109375 C53.79188548 12.57066303 54.12315132 15.67411951 53.34375 19.74609375 C51.71875 23.18359375 51.71875 23.18359375 49.34375 25.74609375 C46.1953125 26.40625 46.1953125 26.40625 43.34375 26.74609375 C43.29549072 27.94331055 43.24723145 29.14052734 43.19750977 30.37402344 C42.65093927 42.96922171 41.59602512 55.46013429 40.28125 67.99609375 C40.09262461 69.83198258 39.90447184 71.66792002 39.71679688 73.50390625 C39.26452408 77.91854452 38.80599003 82.33248846 38.34375 86.74609375 C39.13241455 87.18107178 39.9210791 87.6160498 40.73364258 88.06420898 C46.78234524 91.48062728 52.225217 94.77377822 57.03125 99.80859375 C57.56814453 100.35950684 58.10503906 100.91041992 58.65820312 101.47802734 C74.30973445 118.06921153 81.7779019 139.03626101 81.5546875 161.71484375 C80.70898692 183.38983644 70.86132138 202.32335776 55.359375 217.17578125 C38.70284881 231.37266497 18.36536988 238.33564843 -3.49462891 236.94873047 C-19.33152118 235.46413361 -34.52786816 229.05223103 -46.65625 218.74609375 C-47.64625 218.00359375 -48.63625 217.26109375 -49.65625 216.49609375 C-64.33063911 203.92371172 -72.5272067 184.62791208 -74.65625 165.74609375 C-75.99915813 143.25238265 -70.1758735 122.33514358 -55.25585938 105.13134766 C-44.61072195 93.34260612 -30.66242712 83.17991163 -14.65625 80.74609375 C-14.04882762 76.12151664 -13.44512274 71.49646099 -12.84375 66.87109375 C-12.70844376 65.83148499 -12.70844376 65.83148499 -12.57040405 64.77087402 C-11.13963612 53.75381793 -9.810647 42.72877807 -8.6081543 31.68408203 C-8.49640869 30.67845215 -8.38466309 29.67282227 -8.26953125 28.63671875 C-8.12704956 27.3223584 -8.12704956 27.3223584 -7.98168945 25.98144531 C-7.65625 23.74609375 -7.65625 23.74609375 -6.65625 20.74609375 C-7.23375 20.70484375 -7.81125 20.66359375 -8.40625 20.62109375 C-11.91975514 19.25473064 -12.93202019 17.00981446 -14.65625 13.74609375 C-15.32579002 9.72885361 -14.84856067 8.10324213 -12.90625 4.49609375 C-8.94934923 -0.3401183 -6.11800686 -0.50748253 0 0 Z " fill="#F0D9FE" transform="translate(757.65625,470.25390625)"/>
<path d="M0 0 C1.04765108 1.57147662 2.08628638 3.15266052 3.015625 4.796875 C8.01134582 12.70149655 16.3241959 16.37110214 25.0625 18.87890625 C42.2026112 22.07035925 62.61690575 21.44972687 78.79296875 14.8046875 C81 14 81 14 84 14 C84 13.34 84 12.68 84 12 C89.66524583 9.41571663 95.39740819 7.54173192 101.375 5.8125 C102.26960937 5.53986328 103.16421875 5.26722656 104.0859375 4.98632812 C109.9246982 3.29325725 114.92296648 2.72152087 121 3 C128.82708155 17.03476691 130.4158141 33.85132162 126.8125 49.5 C126.25305454 51.34747104 125.64857622 53.18190282 125 55 C124.64808594 56.00289062 124.29617188 57.00578125 123.93359375 58.0390625 C116.77311697 76.70829239 103.44493312 89.34237785 85.56640625 97.640625 C76.70330118 101.01889506 68.61273393 102.53444603 59.125 102.4375 C58.07143311 102.42920166 57.01786621 102.42090332 55.93237305 102.41235352 C47.94276505 102.23905519 41.33425486 101.35737007 34 98 C32.93007813 97.525625 31.86015625 97.05125 30.7578125 96.5625 C12.40442184 87.58013469 1.12912149 72.0976172 -6.03515625 53.28125 C-10.73881298 38.05452866 -9.60691531 18.97152187 -2.84375 4.53125 C-1.75 2.5625 -1.75 2.5625 0 0 Z " fill="#9C74EB" transform="translate(701,596)"/>
<path d="M0 0 C7.05620894 5.75774997 13.59698923 12.43277113 17 21 C17.31453125 21.78117188 17.6290625 22.56234375 17.953125 23.3671875 C22.05638938 35.63967823 21.37367479 48.81885838 16.2890625 60.59375 C15 63 15 63 13 65 C10.59073766 65.18765773 8.29751603 65.25200981 5.88818359 65.22705078 C4.79046883 65.22748886 4.79046883 65.22748886 3.670578 65.22793579 C1.24641146 65.22654001 -1.17744951 65.2109674 -3.6015625 65.1953125 C-5.28022087 65.19158325 -6.95888141 65.18873586 -8.63754272 65.18673706 C-13.05991607 65.17909369 -17.48215845 65.15943922 -21.90447998 65.1373291 C-26.41546863 65.11688579 -30.9264784 65.10773859 -35.4375 65.09765625 C-44.29172427 65.07619394 -53.14585125 65.04204955 -62 65 C-61.30573293 61.95934558 -60.4557234 60.02972688 -58.625 57.5 C-49.41988926 42.9319117 -52.31792094 24.1898644 -55.66430664 8.26025391 C-55.9406897 6.92873291 -55.9406897 6.92873291 -56.22265625 5.5703125 C-56.48187866 4.39106201 -56.48187866 4.39106201 -56.74633789 3.18798828 C-57.02446741 0.78895388 -56.87438034 -0.75194136 -56 -3 C-37.81533089 -13.53256035 -17.12435045 -11.79769952 0 0 Z " fill="#9C74EA" transform="translate(212,953)"/>
<path d="M0 0 C1.99096098 1.67563382 3.81737906 3.41139439 5.62109375 5.28515625 C6.36359375 6.02765625 7.10609375 6.77015625 7.87109375 7.53515625 C14.13065532 17.37161014 14.92332787 27.76249901 13.18359375 39.1484375 C10.78104654 48.80367409 4.40347411 55.52853963 -3.78515625 60.84375 C-12.27123348 65.55965737 -22.47726222 67.09496802 -31.95986938 64.60835266 C-34.37890625 63.28515625 -34.37890625 63.28515625 -35.44247437 60.87638855 C-35.64756622 59.86554703 -35.85265808 58.85470551 -36.06396484 57.81323242 C-36.3070639 56.66831833 -36.55016296 55.52340424 -36.80062866 54.34379578 C-37.16035263 52.47978874 -37.16035263 52.47978874 -37.52734375 50.578125 C-37.91981796 48.66910149 -37.91981796 48.66910149 -38.32022095 46.72151184 C-38.8730715 44.02642488 -39.41114863 41.328952 -39.93798828 38.62866211 C-40.61238188 35.17412151 -41.31427778 31.72593501 -42.02628136 28.27897167 C-42.70458617 24.98509789 -43.36582185 21.68791247 -44.02734375 18.390625 C-44.27930511 17.15402634 -44.53126648 15.91742767 -44.79086304 14.64335632 C-45.12714218 12.91180046 -45.12714218 12.91180046 -45.47021484 11.14526367 C-45.67053314 10.13203537 -45.87085144 9.11880707 -46.07723999 8.07487488 C-46.3908444 5.17475581 -46.19876254 3.0755071 -45.37890625 0.28515625 C-33.58051482 -11.10132126 -12.33531395 -8.89195866 0 0 Z " fill="#9C74EB" transform="translate(176.37890625,820.71484375)"/>
<path d="M0 0 C3.46679688 0.04882812 3.46679688 0.04882812 6.93359375 0.09765625 C4.09472672 11.88006131 0.89971308 23.54443628 -2.44018555 35.1940918 C-3.26730068 38.08192223 -4.08793007 40.97154768 -4.90820312 43.86132812 C-5.43321048 45.69932827 -5.95858668 47.53722311 -6.484375 49.375 C-6.72915085 50.23834457 -6.9739267 51.10168915 -7.22612 51.99119568 C-8.95162135 57.98287135 -8.95162135 57.98287135 -10.06640625 59.09765625 C-13.36640625 59.09765625 -16.66640625 59.09765625 -20.06640625 59.09765625 C-24.02640625 45.56765625 -27.98640625 32.03765625 -32.06640625 18.09765625 C-34.06219164 22.08922703 -35.343871 26.03633289 -36.59765625 30.29296875 C-37.08318923 31.91150157 -37.56887075 33.52998983 -38.0546875 35.1484375 C-38.81401502 37.69349049 -39.57128534 40.23912591 -40.32568359 42.78564453 C-41.05668727 45.24809754 -41.7954475 47.70811914 -42.53515625 50.16796875 C-42.75917114 50.93255402 -42.98318604 51.69713928 -43.21398926 52.4848938 C-44.83987743 57.87112743 -44.83987743 57.87112743 -47.06640625 60.09765625 C-49.7548001 60.36757531 -52.35782561 60.18502982 -55.06640625 60.09765625 C-58.62678552 48.93665399 -61.95982166 37.72194249 -65.14331055 26.44775391 C-65.89030553 23.80736341 -66.64529893 21.16933491 -67.40039062 18.53125 C-67.87939289 16.8399815 -68.35792664 15.14858022 -68.8359375 13.45703125 C-69.0608638 12.67479187 -69.2857901 11.89255249 -69.51753235 11.08660889 C-70.49560663 7.5936209 -71.06640625 4.75417186 -71.06640625 1.09765625 C-68.09640625 1.09765625 -65.12640625 1.09765625 -62.06640625 1.09765625 C-58.10640625 15.94765625 -54.14640625 30.79765625 -50.06640625 46.09765625 C-46.15999192 32.03699847 -46.15999192 32.03699847 -42.25805664 17.97509766 C-41.76855471 16.21642604 -41.27890049 14.4577968 -40.7890625 12.69921875 C-40.5350769 11.78100342 -40.28109131 10.86278809 -40.01940918 9.91674805 C-39.65414124 8.60758423 -39.65414124 8.60758423 -39.28149414 7.27197266 C-38.96505699 6.13279892 -38.96505699 6.13279892 -38.64222717 4.97061157 C-38.06640625 3.09765625 -38.06640625 3.09765625 -37.06640625 1.09765625 C-33.76640625 1.09765625 -30.46640625 1.09765625 -27.06640625 1.09765625 C-23.10640625 15.61765625 -19.14640625 30.13765625 -15.06640625 45.09765625 C-13.0598034 39.07784771 -11.205874 33.1616631 -9.62890625 27.03515625 C-9.41717773 26.22385254 -9.20544922 25.41254883 -8.98730469 24.57666016 C-7.92920047 20.50525914 -6.89583386 16.42853004 -5.890625 12.34375 C-5.70878662 11.60584229 -5.52694824 10.86793457 -5.33959961 10.10766602 C-4.99692469 8.7093029 -4.65775976 7.31007387 -4.32250977 5.90991211 C-2.91446072 0.13773444 -2.91446072 0.13773444 0 0 Z " fill="#9D73EB" transform="translate(196.06640625,1064.90234375)"/>
<path d="M0 0 C1.13813539 0.79399564 2.26853965 1.59992806 3.375 2.4375 C3.705 0.7875 4.035 -0.8625 4.375 -2.5625 C7.345 -2.5625 10.315 -2.5625 13.375 -2.5625 C13.42460576 4.26935784 13.46081712 11.10110976 13.48486328 17.93310547 C13.49489264 20.25506416 13.5085194 22.57701032 13.52587891 24.89892578 C13.55026201 28.24514877 13.56151404 31.59120408 13.5703125 34.9375 C13.58063507 35.9680249 13.59095764 36.9985498 13.60159302 38.06030273 C13.60288038 46.41547263 12.98296911 53.79648395 7.375 60.4375 C0.28024837 65.83885412 -5.79907706 67.11242352 -14.625 66.4375 C-21.23293031 65.36478404 -25.14799013 62.71983219 -29.31640625 57.51171875 C-30.99038222 54.85834191 -31.5468617 52.56303211 -31.625 49.4375 C-28.57543561 49.14980525 -25.6636085 48.99176494 -22.625 49.4375 C-20.875 51.75 -20.875 51.75 -19.625 54.4375 C-15.78376807 57.81312806 -11.98492972 57.95032556 -7.06640625 57.7890625 C-3.40975677 57.26250498 -1.31304042 55.92393739 1.375 53.4375 C4.2739992 48.9572285 3.55491594 43.58509498 3.375 38.4375 C2.26125 39.365625 2.26125 39.365625 1.125 40.3125 C-4.93594889 44.99596051 -10.08220811 45.20341331 -17.625 44.4375 C-23.81065952 42.72154462 -28.15435851 38.75399221 -31.625 33.4375 C-35.04024624 26.7473601 -34.80294453 16.9752636 -32.9375 9.7890625 C-30.16167261 3.75163792 -25.51640649 -0.02209674 -19.375 -2.4375 C-12.37919203 -4.48333292 -6.20794702 -3.84301482 0 0 Z M-22.9375 10.5625 C-25.72615246 15.31353753 -26.22731346 20.31932853 -25.18359375 25.72265625 C-23.35128376 31.32428964 -20.40665074 33.85872526 -15.3125 36.75 C-11.53667786 37.71590799 -8.29899778 37.63433261 -4.625 36.4375 C-1.0546394 34.23391807 1.59892119 31.68597461 3.8125 28.125 C5.17307233 21.62448778 5.03767069 16.03661585 1.69921875 10.16796875 C-1.03630453 6.59322889 -4.25076234 4.87836425 -8.64453125 4.0625 C-15.064624 3.66968362 -18.43432884 6.42445083 -22.9375 10.5625 Z " fill="#9C73EB" transform="translate(1464.625,1080.5625)"/>
<path d="M0 0 C1.875 1.6875 1.875 1.6875 3 3 C3.33 1.02 3.66 -0.96 4 -3 C6.64 -3 9.28 -3 12 -3 C12.10173363 4.40141002 12.1716057 11.80263853 12.21972656 19.20458984 C12.23979516 21.72060891 12.2670563 24.23658161 12.30175781 26.75244141 C12.35048312 30.37674428 12.37301722 34.00042841 12.390625 37.625 C12.41127014 38.74302002 12.43191528 39.86104004 12.45318604 41.01293945 C12.45537403 48.69308047 11.38031774 54.00227262 6.2890625 60.0234375 C-0.40747396 65.46240843 -6.43947798 66.82635507 -15 66 C-21.84327771 64.59399752 -27.32693261 61.88809802 -31.375 56 C-32.12860024 53.58847922 -32.13952346 51.51142219 -32 49 C-26.66950846 48.56307446 -26.66950846 48.56307446 -24 49 C-22.375 51.3125 -22.375 51.3125 -21 54 C-15.93600143 57.58185265 -10.96976162 57.55810793 -5 57 C-2.04023328 56.5048792 -2.04023328 56.5048792 0 55 C1.8670484 51.2390392 2.35044625 47.8515652 2.625 43.6875 C2.69976563 42.61886719 2.77453125 41.55023437 2.8515625 40.44921875 C2.90054687 39.64097656 2.94953125 38.83273437 3 38 C2.52949219 38.34933594 2.05898437 38.69867187 1.57421875 39.05859375 C0.95160156 39.51363281 0.32898437 39.96867187 -0.3125 40.4375 C-0.92738281 40.88996094 -1.54226563 41.34242187 -2.17578125 41.80859375 C-7.18938507 45.0830031 -13.25881446 44.5033568 -19 44 C-24.90544335 42.46243017 -28.44163899 39.04025823 -31.8125 34.06640625 C-35.53501737 27.58873621 -36.02682272 20.10610933 -34.5703125 12.86328125 C-32.79451378 7.28376553 -29.52359438 2.70035113 -25 -1 C-16.67638319 -5.23747765 -7.93078302 -4.90953234 0 0 Z M-23.3125 9.5 C-26.62457995 14.4067851 -26.4833915 19.27091552 -26 25 C-24.24641863 30.16332292 -21.50512034 32.96770746 -17 36 C-12.02049385 37.47540923 -8.47041894 36.99791924 -3.796875 35.0234375 C-0.03219403 32.87920616 1.66511175 30.00466475 3 26 C3.48768871 20.45953648 3.74334535 15.60105152 1.375 10.5 C-2.34297305 6.58634416 -5.46472529 3.80546053 -11 3.5625 C-16.23712761 3.86233555 -19.74085439 5.63876151 -23.3125 9.5 Z " fill="#9C73EB" transform="translate(1129,1081)"/>
<path d="M0 0 C1.91182079 1.55162267 3.37972942 3.12656214 5 5 C5.43570313 4.59007812 5.87140625 4.18015625 6.3203125 3.7578125 C11.12373607 -0.58814216 14.79404004 -2.70315186 21.375 -3.3125 C27.13703291 -2.81577303 31.95950704 -1.59326843 35.875 2.875 C39.49141085 8.19325125 40.28969451 12.34305938 40.1953125 18.70703125 C40.1924826 19.43242599 40.18965271 20.15782074 40.18673706 20.90519714 C40.17559799 23.20780368 40.15050566 25.51001227 40.125 27.8125 C40.11496206 29.37955165 40.10583763 30.94660943 40.09765625 32.51367188 C40.0756793 36.34259978 40.04119339 40.17123256 40 44 C37.36 44 34.72 44 32 44 C31.98541748 43.18845459 31.97083496 42.37690918 31.95581055 41.54077148 C31.88102368 37.83921807 31.78446239 34.13853621 31.6875 30.4375 C31.66494141 29.16068359 31.64238281 27.88386719 31.61914062 26.56835938 C31.39702184 16.01449159 31.39702184 16.01449159 26.3125 7.0625 C21.85962765 5.01658568 17.66294624 5.40873023 13.1875 7 C8.32238727 11.44810307 7.8084026 17.4195851 7.48828125 23.6875 C7.41582611 26.12462735 7.35754888 28.56221205 7.3125 31 C7.27833984 32.25167969 7.24417969 33.50335937 7.20898438 34.79296875 C7.12699031 37.86188957 7.05767981 40.93054206 7 44 C4.36 44 1.72 44 -1 44 C-1.01458252 43.12263184 -1.02916504 42.24526367 -1.04418945 41.34130859 C-1.1054968 38.06450679 -1.17969333 34.78851056 -1.26245117 31.51220703 C-1.29556291 30.0982551 -1.32363716 28.68417536 -1.34643555 27.27001953 C-1.38023775 25.22894177 -1.43255964 23.18902072 -1.48828125 21.1484375 C-1.51446533 19.92302246 -1.54064941 18.69760742 -1.56762695 17.43505859 C-2.10653482 13.15361667 -3.25477262 9.42203713 -6.6875 6.625 C-11.41738998 5.34665136 -15.43223947 5.31836499 -19.875 7.25 C-22.2209975 9.18199794 -22.92448657 10.18331912 -24 13 C-24.23030907 15.38350485 -24.35519654 17.77799271 -24.4140625 20.171875 C-24.43342865 20.8542926 -24.4527948 21.53671021 -24.4727478 22.23980713 C-24.53231098 24.40974608 -24.57883446 26.57973877 -24.625 28.75 C-24.66320131 30.22528297 -24.7022543 31.70054415 -24.7421875 33.17578125 C-24.83799235 36.78365418 -24.92210916 40.39169083 -25 44 C-27.97 44 -30.94 44 -34 44 C-34 28.82 -34 13.64 -34 -2 C-31.03 -2 -28.06 -2 -25 -2 C-24.67 -1.01 -24.34 -0.02 -24 1 C-23.2575 0.525625 -22.515 0.05125 -21.75 -0.4375 C-14.68633403 -4.45094657 -7.05656557 -3.7792485 0 0 Z " fill="#9C73EA" transform="translate(297,1080)"/>
<path d="M0 0 C3.55272559 3.64621836 5.375 7.22033541 5.375 12.4375 C2.405 12.4375 -0.565 12.4375 -3.625 12.4375 C-4.285 10.7875 -4.945 9.1375 -5.625 7.4375 C-10.90699593 6.23761955 -10.90699593 6.23761955 -15.625 8.4375 C-16.25474212 11.37629657 -16.15042332 13.4058469 -14.76953125 16.1171875 C-11.22254741 21.20301663 -6.71845028 25.53766999 -2.375 29.9375 C-1.74835449 30.57365234 -1.12170898 31.20980469 -0.47607422 31.86523438 C0.11931152 32.45626953 0.71469727 33.04730469 1.328125 33.65625 C1.86598633 34.19185547 2.40384766 34.72746094 2.95800781 35.27929688 C4.32807048 36.64845332 4.32807048 36.64845332 6.375 36.4375 C7.26869325 34.96070852 8.1153629 33.45529158 8.9375 31.9375 C11.66353587 27.61507588 11.66353587 27.61507588 14.76953125 26.83984375 C17.03145571 26.87190252 19.15010234 27.03701842 21.375 27.4375 C19.67170403 32.0820973 17.2274162 35.9194248 14.51953125 40.03515625 C13.2310047 42.29257217 13.2310047 42.29257217 13.3828125 44.421875 C14.85657003 47.41580763 17.03066853 49.33326314 19.4375 51.625 C21.09717442 53.2148424 22.74691436 54.81532393 24.375 56.4375 C24.375 56.7675 24.375 57.0975 24.375 57.4375 C13.69069507 58.20431614 13.69069507 58.20431614 10.46484375 56.32421875 C9.125 54.9375 9.125 54.9375 7.375 52.4375 C4.31293888 53.58577292 1.78802281 54.80707823 -1 56.5625 C-7.61566653 59.9080652 -16.20225531 59.6774599 -23.23046875 57.70703125 C-28.08999298 55.47329122 -31.21918565 52.24912869 -33.625 47.4375 C-34.11387732 41.63508722 -34.48045438 36.28001714 -32 30.9375 C-29.32889071 28.12580601 -26.74640011 25.74462182 -23.625 23.4375 C-22.965 23.4375 -22.305 23.4375 -21.625 23.4375 C-21.92535156 22.89222656 -22.22570312 22.34695313 -22.53515625 21.78515625 C-25.41309224 16.07806285 -26.52312523 11.66383436 -24.625 5.4375 C-19.28204328 -3.22177468 -8.8808672 -3.82796 0 0 Z M-23.625 33.4375 C-25.99919462 36.63750145 -26.09486055 39.52199539 -25.625 43.4375 C-23.90654072 46.74712528 -22.57463862 48.85716529 -19.375 50.8125 C-13.39726625 52.17107585 -9.4113058 52.23128943 -4.125 49.125 C-2.10255027 47.91864737 -2.10255027 47.91864737 -0.625 46.4375 C-0.31445595 43.46412858 -0.31445595 43.46412858 -1.98608398 41.7199707 C-2.60813721 41.10726318 -3.23019043 40.49455566 -3.87109375 39.86328125 C-4.54333984 39.19619141 -5.21558594 38.52910156 -5.90820312 37.84179688 C-6.61912109 37.15150391 -7.33003906 36.46121094 -8.0625 35.75 C-8.76955078 35.04810547 -9.47660156 34.34621094 -10.20507812 33.62304688 C-16.25094343 27.66974984 -17.03873721 28.04732739 -23.625 33.4375 Z " fill="#9C73EB" transform="translate(948.625,1066.5625)"/>
<path d="M0 0 C8.61858104 4.7375502 16.55303703 6.89355647 26.33984375 7.46484375 C27.03271484 7.50802734 27.72558594 7.55121094 28.43945312 7.59570312 C30.13523061 7.70095828 31.83126427 7.80207238 33.52734375 7.90234375 C32.86734375 8.23234375 32.20734375 8.56234375 31.52734375 8.90234375 C31.52734375 9.56234375 31.52734375 10.22234375 31.52734375 10.90234375 C28.73992463 11.89524795 25.94834859 12.87165507 23.15234375 13.83984375 C22.37761719 14.11763672 21.60289062 14.39542969 20.8046875 14.68164062 C3.73998075 20.53441195 -19.89846683 20.33860893 -36.69140625 13.61328125 C-43.76245353 10.05874942 -48.8767393 5.89213613 -51.84765625 -1.53515625 C-52.05390625 -2.38078125 -52.26015625 -3.22640625 -52.47265625 -4.09765625 C-35.46450006 -16.24633924 -16.51833942 -9.16199393 0 0 Z " fill="#D597FC" transform="translate(753.47265625,599.09765625)"/>
<path d="M0 0 C4.06609198 3.42205377 5.66979431 6.4342514 7.65234375 11.390625 C7.65234375 15.350625 7.65234375 19.310625 7.65234375 23.390625 C-4.22765625 23.390625 -16.10765625 23.390625 -28.34765625 23.390625 C-25.48782777 30.46809604 -25.48782777 30.46809604 -20.34765625 34.390625 C-15.81320249 35.49172563 -12.41566835 35.76640703 -7.97265625 34.203125 C-5.27131819 32.60493859 -5.27131819 32.60493859 -4.03515625 30.203125 C-2.34765625 28.390625 -2.34765625 28.390625 -0.16796875 28.13671875 C2.1183288 28.14027996 4.37292037 28.21859305 6.65234375 28.390625 C6.23037648 33.17292076 4.11075341 36.2189679 0.65234375 39.390625 C-5.821236 44.47254147 -13.46186203 44.27501314 -21.34765625 43.390625 C-27.29000504 41.8862329 -30.77330861 38.45447219 -34.16015625 33.45703125 C-37.97600002 26.81696101 -38.24638337 19.39898612 -36.91796875 11.99609375 C-35.28530169 6.08019521 -32.39859527 1.9101117 -27.34765625 -1.609375 C-18.35155741 -6.05378499 -8.24401739 -5.86690808 0 0 Z M-25.34765625 7.390625 C-27.67296569 11.14631782 -27.67296569 11.14631782 -28.34765625 15.390625 C-19.43765625 15.390625 -10.52765625 15.390625 -1.34765625 15.390625 C-2.38065492 9.19263295 -2.80335416 8.17754341 -7.34765625 4.390625 C-14.08471105 2.14494007 -19.93514904 2.49359466 -25.34765625 7.390625 Z " fill="#9C73EB" transform="translate(724.34765625,1081.609375)"/>
<path d="M0 0 C4.2073273 3.53097208 6.46230291 7.03153499 7.65234375 12.38671875 C7.65234375 16.01671875 7.65234375 19.64671875 7.65234375 23.38671875 C-4.22765625 23.38671875 -16.10765625 23.38671875 -28.34765625 23.38671875 C-26.50230683 31.88616965 -26.50230683 31.88616965 -23.22265625 33.88671875 C-22.27390625 34.05171875 -21.32515625 34.21671875 -20.34765625 34.38671875 C-19.65027344 34.52722656 -18.95289063 34.66773438 -18.234375 34.8125 C-13.05210327 35.67476034 -9.82580534 35.47877407 -5.34765625 32.38671875 C-4.91453125 31.66484375 -4.48140625 30.94296875 -4.03515625 30.19921875 C-2.34765625 28.38671875 -2.34765625 28.38671875 -0.16796875 28.1328125 C2.1183288 28.13637371 4.37292037 28.2146868 6.65234375 28.38671875 C4.98756469 34.89449143 1.22914456 38.78878274 -4.34765625 42.38671875 C-10.90092588 44.50210827 -19.4741778 44.6806384 -25.78515625 41.82421875 C-31.92514258 38.15061171 -35.49358512 33.24929878 -37.34765625 26.38671875 C-38.3514306 17.46897611 -37.85628182 9.71764217 -32.34765625 2.38671875 C-23.83258221 -6.3556995 -9.75035883 -6.95884506 0 0 Z M-25.34765625 7.38671875 C-27.53467987 10.37565104 -28.34765625 11.66616329 -28.34765625 15.38671875 C-19.43765625 15.38671875 -10.52765625 15.38671875 -1.34765625 15.38671875 C-2.38065492 9.1887267 -2.80335416 8.17363716 -7.34765625 4.38671875 C-14.13309229 2.12490674 -19.85072009 2.54417975 -25.34765625 7.38671875 Z " fill="#9B73EB" transform="translate(1312.34765625,1081.61328125)"/>
<path d="M0 0 C4.88238311 3.83690492 8.07328706 9.29666925 8.82421875 15.43359375 C8.82421875 18.40359375 8.82421875 21.37359375 8.82421875 24.43359375 C-3.05578125 24.76359375 -14.93578125 25.09359375 -27.17578125 25.43359375 C-24.13341441 33.08415171 -24.13341441 33.08415171 -20.36328125 35.43359375 C-15.36503358 37.00167145 -11.77973906 37.03886085 -6.86328125 35.18359375 C-3.79021359 33.50495146 -3.79021359 33.50495146 -2.17578125 29.43359375 C1.12421875 29.43359375 4.42421875 29.43359375 7.82421875 29.43359375 C5.7991514 35.38967418 3.10942718 38.94967065 -2.17578125 42.43359375 C-8.41619968 45.49631167 -15.9188833 45.58392054 -22.58984375 43.78125 C-28.34354547 41.19319498 -32.46739496 36.78015867 -35.31640625 31.19921875 C-37.44166263 24.3597573 -37.56162324 14.29467509 -34.55078125 7.74609375 C-30.62097691 1.55119386 -25.78623392 -1.29564166 -18.82421875 -3.125 C-12.25551163 -4.21978452 -5.84265243 -3.2353836 0 0 Z M-26.05078125 10.43359375 C-27.50262208 12.63219495 -27.50262208 12.63219495 -27.17578125 16.43359375 C-18.26578125 16.43359375 -9.35578125 16.43359375 -0.17578125 16.43359375 C-1.16969231 11.46403846 -1.82966334 9.9709184 -5.17578125 6.43359375 C-12.84777446 1.81753075 -20.18349021 4.17514997 -26.05078125 10.43359375 Z " fill="#9B73EB" transform="translate(1260.17578125,1080.56640625)"/>
<path d="M0 0 C4.88238311 3.83690492 8.07328706 9.29666925 8.82421875 15.43359375 C8.82421875 18.40359375 8.82421875 21.37359375 8.82421875 24.43359375 C-3.05578125 24.76359375 -14.93578125 25.09359375 -27.17578125 25.43359375 C-24.13341441 33.08415171 -24.13341441 33.08415171 -20.36328125 35.43359375 C-15.36503358 37.00167145 -11.77973906 37.03886085 -6.86328125 35.18359375 C-3.79021359 33.50495146 -3.79021359 33.50495146 -2.17578125 29.43359375 C1.12421875 29.43359375 4.42421875 29.43359375 7.82421875 29.43359375 C5.7991514 35.38967418 3.10942718 38.94967065 -2.17578125 42.43359375 C-8.41619968 45.49631167 -15.9188833 45.58392054 -22.58984375 43.78125 C-28.34354547 41.19319498 -32.46739496 36.78015867 -35.31640625 31.19921875 C-37.44166263 24.3597573 -37.56162324 14.29467509 -34.55078125 7.74609375 C-30.62097691 1.55119386 -25.78623392 -1.29564166 -18.82421875 -3.125 C-12.25551163 -4.21978452 -5.84265243 -3.2353836 0 0 Z M-26.05078125 10.43359375 C-27.50262208 12.63219495 -27.50262208 12.63219495 -27.17578125 16.43359375 C-18.26578125 16.43359375 -9.35578125 16.43359375 -0.17578125 16.43359375 C-1.16969231 11.46403846 -1.82966334 9.9709184 -5.17578125 6.43359375 C-12.84777446 1.81753075 -20.18349021 4.17514997 -26.05078125 10.43359375 Z " fill="#9B73EB" transform="translate(878.17578125,1080.56640625)"/>
<path d="M0 0 C4.88238311 3.83690492 8.07328706 9.29666925 8.82421875 15.43359375 C8.82421875 18.40359375 8.82421875 21.37359375 8.82421875 24.43359375 C-3.05578125 24.76359375 -14.93578125 25.09359375 -27.17578125 25.43359375 C-24.13341441 33.08415171 -24.13341441 33.08415171 -20.36328125 35.43359375 C-15.36503358 37.00167145 -11.77973906 37.03886085 -6.86328125 35.18359375 C-3.79021359 33.50495146 -3.79021359 33.50495146 -2.17578125 29.43359375 C1.12421875 29.43359375 4.42421875 29.43359375 7.82421875 29.43359375 C5.7991514 35.38967418 3.10942718 38.94967065 -2.17578125 42.43359375 C-8.41619968 45.49631167 -15.9188833 45.58392054 -22.58984375 43.78125 C-28.34354547 41.19319498 -32.46739496 36.78015867 -35.31640625 31.19921875 C-37.44166263 24.3597573 -37.56162324 14.29467509 -34.55078125 7.74609375 C-30.62097691 1.55119386 -25.78623392 -1.29564166 -18.82421875 -3.125 C-12.25551163 -4.21978452 -5.84265243 -3.2353836 0 0 Z M-26.05078125 10.43359375 C-27.50262208 12.63219495 -27.50262208 12.63219495 -27.17578125 16.43359375 C-18.26578125 16.43359375 -9.35578125 16.43359375 -0.17578125 16.43359375 C-1.16969231 11.46403846 -1.82966334 9.9709184 -5.17578125 6.43359375 C-12.84777446 1.81753075 -20.18349021 4.17514997 -26.05078125 10.43359375 Z " fill="#9B73EB" transform="translate(382.17578125,1080.56640625)"/>
<path d="M0 0 C3.1874703 1.92260114 4.70803132 3.864502 6.72265625 7.0390625 C7.53515625 10.9140625 7.53515625 10.9140625 7.72265625 14.0390625 C4.64894637 14.39372133 1.78120058 14.57259096 -1.27734375 14.0390625 C-3.71484375 11.1015625 -3.71484375 11.1015625 -5.27734375 8.0390625 C-8.9775946 6.18893707 -13.2380503 6.57649825 -17.27734375 7.0390625 C-20.0334367 8.45950831 -20.0334367 8.45950831 -21.27734375 11.0390625 C-21.94401042 14.0390625 -21.94401042 14.0390625 -21.27734375 17.0390625 C-17.52083961 22.13717525 -11.79963014 23.00392994 -6.0078125 24.66210938 C0.00850167 26.49903724 4.75096124 28.72302999 8.09765625 34.3515625 C9.26663889 39.37818783 9.29745089 43.4104777 7.59765625 48.2265625 C4.30322611 53.1682077 0.31886805 56.17365857 -5.27734375 58.0390625 C-13.5796094 59.15464275 -20.42691926 57.96361294 -27.27734375 53.0390625 C-30.23855904 49.72532158 -31.1999884 48.08335971 -31.52734375 43.6640625 C-31.44484375 42.7978125 -31.36234375 41.9315625 -31.27734375 41.0390625 C-28.30734375 41.0390625 -25.33734375 41.0390625 -22.27734375 41.0390625 C-21.82359375 41.9878125 -21.36984375 42.9365625 -20.90234375 43.9140625 C-19.47496121 47.04219929 -19.47496121 47.04219929 -17.27734375 49.0390625 C-12.75114699 50.24303084 -9.176677 50.37631247 -4.77734375 48.7265625 C-2.19326676 47.28019262 -2.19326676 47.28019262 -1.27734375 45.0390625 C-0.77703169 41.62334397 -0.77703169 41.62334397 -1.27734375 38.0390625 C-5.80168031 33.32546087 -11.60024135 32.14917852 -17.68359375 30.41601562 C-23.5793441 28.61289864 -27.18019089 26.36273203 -30.56640625 20.99609375 C-32.09577575 16.78612606 -32.01036493 12.28640886 -30.625 8.0390625 C-25.11281246 -2.93799766 -10.42180861 -4.57960378 0 0 Z " fill="#9C73EB" transform="translate(600.27734375,1066.9609375)"/>
<path d="M0 0 C5.4205624 4.58283912 8.22878953 9.38903183 9.08984375 16.53125 C9.25006966 24.18439342 8.55407063 30.2950385 3.71875 36.453125 C-3.17624696 42.37002257 -9.00972481 43.82628084 -17.984375 43.7265625 C-24.2619171 43.20591327 -28.297039 40.77193166 -32.59375 36.265625 C-37.13398163 30.48827304 -39.04987552 23.75506747 -38.28125 16.453125 C-36.93392854 9.91496039 -35.20204151 5.04586374 -30.28125 0.453125 C-20.83157653 -5.50802804 -9.42836214 -6.72350415 0 0 Z M-26.59375 9.453125 C-29.43671469 14.50728446 -29.94317212 18.76243342 -29.28125 24.453125 C-27.96742991 28.5873741 -26.30514217 31.5952694 -22.96875 34.390625 C-17.16111763 36.6866657 -12.78054863 36.88572597 -7.078125 34.4765625 C-3.31344403 32.33233116 -1.61613825 29.45778975 -0.28125 25.453125 C0.20643871 19.91266148 0.46209535 15.05417652 -1.90625 9.953125 C-5.62422305 6.03946916 -8.74597529 3.25858553 -14.28125 3.015625 C-19.78692595 3.34134247 -23.19472432 5.04357817 -26.59375 9.453125 Z " fill="#9C73EB" transform="translate(245.28125,1081.546875)"/>
<path d="M0 0 C10.56 0 21.12 0 32 0 C32 2.31 32 4.62 32 7 C24.41 7 16.82 7 9 7 C9 12.94 9 18.88 9 25 C15.93 25 22.86 25 30 25 C30 27.31 30 29.62 30 32 C23.07 32 16.14 32 9 32 C9 38.27 9 44.54 9 51 C16.59 51 24.18 51 32 51 C32 53.31 32 55.62 32 58 C21.44 58 10.88 58 0 58 C0 38.86 0 19.72 0 0 Z " fill="#9C73EA" transform="translate(1001,1066)"/>
<path d="M0 0 C4.30203913 3.58160196 6.14593758 7.26629727 7 12.75 C7.0805562 15.17205646 7.10762899 17.59615605 7.09765625 20.01953125 C7.0962413 20.70053391 7.09482635 21.38153656 7.09336853 22.08317566 C7.08780298 24.24299647 7.07525703 26.40271089 7.0625 28.5625 C7.05748054 30.03320162 7.05291841 31.50390488 7.04882812 32.97460938 C7.03784488 36.5664404 7.02060422 40.1582098 7 43.75 C4.03 43.75 1.06 43.75 -2 43.75 C-2.01458252 42.83710205 -2.02916504 41.9242041 -2.04418945 40.98364258 C-2.10540795 37.58201389 -2.17958873 34.18117319 -2.26245117 30.7800293 C-2.29561259 29.31073578 -2.32367178 27.84131756 -2.34643555 26.37182617 C-2.38014519 24.25385632 -2.43246433 22.13702005 -2.48828125 20.01953125 C-2.51446533 18.74698486 -2.54064941 17.47443848 -2.56762695 16.16333008 C-3.09986345 11.961637 -4.30411152 9.06902437 -7.6875 6.4375 C-12.38232868 5.04174012 -16.44523152 5.0740137 -20.875 7 C-23.2209975 8.93199794 -23.92448657 9.93331912 -25 12.75 C-25.23030907 15.13350485 -25.35519654 17.52799271 -25.4140625 19.921875 C-25.43342865 20.6042926 -25.4527948 21.28671021 -25.4727478 21.98980713 C-25.53231098 24.15974608 -25.57883446 26.32973877 -25.625 28.5 C-25.66320131 29.97528297 -25.7022543 31.45054415 -25.7421875 32.92578125 C-25.83799235 36.53365418 -25.92210916 40.14169083 -26 43.75 C-28.97 43.75 -31.94 43.75 -35 43.75 C-35 28.57 -35 13.39 -35 -2.25 C-32.03 -2.25 -29.06 -2.25 -26 -2.25 C-25.67 -1.26 -25.34 -0.27 -25 0.75 C-23.9171875 0.0384375 -23.9171875 0.0384375 -22.8125 -0.6875 C-16.00380792 -4.47010671 -6.53607969 -4.4222837 0 0 Z " fill="#9C73EB" transform="translate(776,1080.25)"/>
<path d="M0 0 C3.47118775 3.05043772 5.6159268 6.61453986 7 11 C7.16464931 13.60836374 7.23392915 16.10319498 7.1953125 18.70703125 C7.1924826 19.43242599 7.18965271 20.15782074 7.18673706 20.90519714 C7.17559799 23.20780368 7.15050566 25.51001227 7.125 27.8125 C7.11496206 29.37955165 7.10583763 30.94660943 7.09765625 32.51367188 C7.0756793 36.34259978 7.04119339 40.17123256 7 44 C4.36 44 1.72 44 -1 44 C-1.029729 42.82812134 -1.029729 42.82812134 -1.06005859 41.63256836 C-1.15575472 38.06722682 -1.26525339 34.50243558 -1.375 30.9375 C-1.4059375 29.70837891 -1.436875 28.47925781 -1.46875 27.21289062 C-1.50453852 16.67733419 -1.50453852 16.67733419 -6.0625 7.5625 C-10.97949227 4.94707858 -15.60697562 5.49084588 -20.9375 6.625 C-23.91135377 8.60756918 -24.08796419 10.5827205 -25 14 C-25.22059893 16.37659026 -25.35288244 18.76241525 -25.4140625 21.1484375 C-25.43342865 21.80582916 -25.4527948 22.46322083 -25.4727478 23.14053345 C-25.53202461 25.21856135 -25.57871794 27.29664624 -25.625 29.375 C-25.66322778 30.7929915 -25.70228223 32.21096097 -25.7421875 33.62890625 C-25.83768171 37.08573461 -25.92190189 40.54272983 -26 44 C-28.97 44 -31.94 44 -35 44 C-35 28.82 -35 13.64 -35 -2 C-32.03 -2 -29.06 -2 -26 -2 C-25.67 -0.68 -25.34 0.64 -25 2 C-24.0925 1.360625 -23.185 0.72125 -22.25 0.0625 C-15.19418342 -4.41522975 -7.26072413 -4.08797073 0 0 Z " fill="#9C73EA" transform="translate(1415,1080)"/>
<path d="M0 0 C3.47118775 3.05043772 5.6159268 6.61453986 7 11 C7.16464931 13.60836374 7.23392915 16.10319498 7.1953125 18.70703125 C7.1924826 19.43242599 7.18965271 20.15782074 7.18673706 20.90519714 C7.17559799 23.20780368 7.15050566 25.51001227 7.125 27.8125 C7.11496206 29.37955165 7.10583763 30.94660943 7.09765625 32.51367188 C7.0756793 36.34259978 7.04119339 40.17123256 7 44 C4.36 44 1.72 44 -1 44 C-1.029729 42.82812134 -1.029729 42.82812134 -1.06005859 41.63256836 C-1.15575472 38.06722682 -1.26525339 34.50243558 -1.375 30.9375 C-1.4059375 29.70837891 -1.436875 28.47925781 -1.46875 27.21289062 C-1.50453852 16.67733419 -1.50453852 16.67733419 -6.0625 7.5625 C-10.97949227 4.94707858 -15.60697562 5.49084588 -20.9375 6.625 C-23.91135377 8.60756918 -24.08796419 10.5827205 -25 14 C-25.22059893 16.37659026 -25.35288244 18.76241525 -25.4140625 21.1484375 C-25.43342865 21.80582916 -25.4527948 22.46322083 -25.4727478 23.14053345 C-25.53202461 25.21856135 -25.57871794 27.29664624 -25.625 29.375 C-25.66322778 30.7929915 -25.70228223 32.21096097 -25.7421875 33.62890625 C-25.83768171 37.08573461 -25.92190189 40.54272983 -26 44 C-28.97 44 -31.94 44 -35 44 C-35 28.82 -35 13.64 -35 -2 C-32.03 -2 -29.06 -2 -26 -2 C-25.67 -0.68 -25.34 0.64 -25 2 C-24.0925 1.360625 -23.185 0.72125 -22.25 0.0625 C-15.19418342 -4.41522975 -7.26072413 -4.08797073 0 0 Z " fill="#9C73EA" transform="translate(1208,1080)"/>
<path d="M0 0 C3.47118775 3.05043772 5.6159268 6.61453986 7 11 C7.16464931 13.60836374 7.23392915 16.10319498 7.1953125 18.70703125 C7.1924826 19.43242599 7.18965271 20.15782074 7.18673706 20.90519714 C7.17559799 23.20780368 7.15050566 25.51001227 7.125 27.8125 C7.11496206 29.37955165 7.10583763 30.94660943 7.09765625 32.51367188 C7.0756793 36.34259978 7.04119339 40.17123256 7 44 C4.36 44 1.72 44 -1 44 C-1.029729 42.82812134 -1.029729 42.82812134 -1.06005859 41.63256836 C-1.15575472 38.06722682 -1.26525339 34.50243558 -1.375 30.9375 C-1.4059375 29.70837891 -1.436875 28.47925781 -1.46875 27.21289062 C-1.50453852 16.67733419 -1.50453852 16.67733419 -6.0625 7.5625 C-10.97949227 4.94707858 -15.60697562 5.49084588 -20.9375 6.625 C-23.91135377 8.60756918 -24.08796419 10.5827205 -25 14 C-25.22059893 16.37659026 -25.35288244 18.76241525 -25.4140625 21.1484375 C-25.43342865 21.80582916 -25.4527948 22.46322083 -25.4727478 23.14053345 C-25.53202461 25.21856135 -25.57871794 27.29664624 -25.625 29.375 C-25.66322778 30.7929915 -25.70228223 32.21096097 -25.7421875 33.62890625 C-25.83768171 37.08573461 -25.92190189 40.54272983 -26 44 C-28.97 44 -31.94 44 -35 44 C-35 28.82 -35 13.64 -35 -2 C-32.03 -2 -29.06 -2 -26 -2 C-25.67 -0.68 -25.34 0.64 -25 2 C-24.0925 1.360625 -23.185 0.72125 -22.25 0.0625 C-15.19418342 -4.41522975 -7.26072413 -4.08797073 0 0 Z " fill="#9C73EA" transform="translate(530,1080)"/>
<path d="M0 0 C5.37462464 4.55674697 7.04851374 8.15395264 8 15 C8.07839853 17.30879451 8.10787794 19.61958492 8.09765625 21.9296875 C8.09443359 23.21875 8.09121094 24.5078125 8.08789062 25.8359375 C8.07953733 27.18229236 8.07107241 28.52864652 8.0625 29.875 C8.0574783 31.24479004 8.05291657 32.61458185 8.04882812 33.984375 C8.03707254 37.3229619 8.02063964 40.66145815 8 44 C5.03 44 2.06 44 -1 44 C-1.01458252 43.12263184 -1.02916504 42.24526367 -1.04418945 41.34130859 C-1.1054968 38.06450679 -1.17969333 34.78851056 -1.26245117 31.51220703 C-1.29556291 30.0982551 -1.32363716 28.68417536 -1.34643555 27.27001953 C-1.38023775 25.22894177 -1.43255964 23.18902072 -1.48828125 21.1484375 C-1.51446533 19.92302246 -1.54064941 18.69760742 -1.56762695 17.43505859 C-2.10653482 13.15361667 -3.25477262 9.42203713 -6.6875 6.625 C-11.82489903 5.23651377 -15.59072447 5.37365532 -20.375 7.5 C-26.54917363 13.38016536 -25.41500492 23.53768655 -25.625 31.5 C-25.68300781 33.30597656 -25.68300781 33.30597656 -25.7421875 35.1484375 C-25.83585016 38.09881119 -25.92157524 41.04918856 -26 44 C-28.64 44 -31.28 44 -34 44 C-34 28.82 -34 13.64 -34 -2 C-31.36 -2 -28.72 -2 -26 -2 C-25.67 -0.68 -25.34 0.64 -25 2 C-24.0925 1.360625 -23.185 0.72125 -22.25 0.0625 C-15.08567878 -4.48408847 -7.40271847 -3.91908625 0 0 Z " fill="#9C73EB" transform="translate(1078,1080)"/>
<path d="M0 0 C5.37462464 4.55674697 7.04851374 8.15395264 8 15 C8.07839853 17.30879451 8.10787794 19.61958492 8.09765625 21.9296875 C8.09443359 23.21875 8.09121094 24.5078125 8.08789062 25.8359375 C8.07953733 27.18229236 8.07107241 28.52864652 8.0625 29.875 C8.0574783 31.24479004 8.05291657 32.61458185 8.04882812 33.984375 C8.03707254 37.3229619 8.02063964 40.66145815 8 44 C5.03 44 2.06 44 -1 44 C-1.01458252 43.12263184 -1.02916504 42.24526367 -1.04418945 41.34130859 C-1.1054968 38.06450679 -1.17969333 34.78851056 -1.26245117 31.51220703 C-1.29556291 30.0982551 -1.32363716 28.68417536 -1.34643555 27.27001953 C-1.38023775 25.22894177 -1.43255964 23.18902072 -1.48828125 21.1484375 C-1.51446533 19.92302246 -1.54064941 18.69760742 -1.56762695 17.43505859 C-2.10653482 13.15361667 -3.25477262 9.42203713 -6.6875 6.625 C-11.82489903 5.23651377 -15.59072447 5.37365532 -20.375 7.5 C-26.54917363 13.38016536 -25.41500492 23.53768655 -25.625 31.5 C-25.68300781 33.30597656 -25.68300781 33.30597656 -25.7421875 35.1484375 C-25.83585016 38.09881119 -25.92157524 41.04918856 -26 44 C-28.64 44 -31.28 44 -34 44 C-34 28.82 -34 13.64 -34 -2 C-31.36 -2 -28.72 -2 -26 -2 C-25.67 -0.68 -25.34 0.64 -25 2 C-24.0925 1.360625 -23.185 0.72125 -22.25 0.0625 C-15.08567878 -4.48408847 -7.40271847 -3.91908625 0 0 Z " fill="#9C73EB" transform="translate(434,1080)"/>
<path d="M0 0 C4.18751375 3.90110361 6.71095986 7.07467706 7 13 C3.9267025 13.35461125 1.05876629 13.52919832 -2 13 C-4.375 10.125 -4.375 10.125 -6 7 C-10.25699709 4.16200194 -14.00371868 4.24628416 -19 5 C-22.61579841 6.71584731 -24.58352066 9.16704133 -26.375 12.75 C-27.68417459 19.55770787 -27.77874302 25.17891898 -24.25390625 31.33203125 C-22.14381626 34.13891108 -20.36369158 35.04801182 -17 36 C-12.00116991 36.27378751 -8.93486272 35.75957596 -5 32.5625 C-3.01298758 30.19078303 -3.01298758 30.19078303 -2 28 C0.97 28 3.94 28 7 28 C6.46455772 32.55125938 4.82278978 35.41429406 2 39 C-5.39767265 44.58599771 -11.953428 44.69280074 -21 44 C-26.89367842 42.54739794 -30.4446431 39.07734339 -33.8125 34.14453125 C-37.68219 27.1561766 -37.81925194 19.61594548 -35.875 12 C-33.82685954 5.68249632 -30.5882533 1.58464488 -24.9375 -1.875 C-16.95358575 -4.93266929 -7.20420501 -5.02618954 0 0 Z " fill="#9B73EB" transform="translate(828,1081)"/>
<path d="M0 0 C4.18751375 3.90110361 6.71095986 7.07467706 7 13 C3.9267025 13.35461125 1.05876629 13.52919832 -2 13 C-4.375 10.125 -4.375 10.125 -6 7 C-10.25699709 4.16200194 -14.00371868 4.24628416 -19 5 C-22.61579841 6.71584731 -24.58352066 9.16704133 -26.375 12.75 C-27.68417459 19.55770787 -27.77874302 25.17891898 -24.25390625 31.33203125 C-22.14381626 34.13891108 -20.36369158 35.04801182 -17 36 C-12.00116991 36.27378751 -8.93486272 35.75957596 -5 32.5625 C-3.01298758 30.19078303 -3.01298758 30.19078303 -2 28 C0.97 28 3.94 28 7 28 C6.46455772 32.55125938 4.82278978 35.41429406 2 39 C-5.39767265 44.58599771 -11.953428 44.69280074 -21 44 C-26.89367842 42.54739794 -30.4446431 39.07734339 -33.8125 34.14453125 C-37.68219 27.1561766 -37.81925194 19.61594548 -35.875 12 C-33.82685954 5.68249632 -30.5882533 1.58464488 -24.9375 -1.875 C-16.95358575 -4.93266929 -7.20420501 -5.02618954 0 0 Z " fill="#9B73EB" transform="translate(653,1081)"/>
<path d="M0 0 C0 2.97 0 5.94 0 9 C-1.2375 9.268125 -2.475 9.53625 -3.75 9.8125 C-7.09484845 10.65315218 -9.50711758 11.50711758 -12 14 C-13.14294314 17.42882941 -13.20964472 20.24082838 -13.31640625 23.85546875 C-13.33718735 24.51710526 -13.35796844 25.17874176 -13.37937927 25.86042786 C-13.44464727 27.96934852 -13.50365344 30.07839135 -13.5625 32.1875 C-13.60570689 33.61915315 -13.64932188 35.05079404 -13.69335938 36.48242188 C-13.80030506 39.98815154 -13.90163641 43.49401786 -14 47 C-16.97 47 -19.94 47 -23 47 C-23 31.82 -23 16.64 -23 1 C-20.03 1 -17.06 1 -14 1 C-13.67 2.32 -13.34 3.64 -13 5 C-12.2575 4.360625 -11.515 3.72125 -10.75 3.0625 C-6.84601439 0.13451079 -4.85918901 0 0 0 Z " fill="#9C73EB" transform="translate(1352,1077)"/>
<path d="M0 0 C2.97 0 5.94 0 9 0 C9 15.18 9 30.36 9 46 C6.03 46 3.06 46 0 46 C0 30.82 0 15.64 0 0 Z " fill="#9C73EA" transform="translate(669,1078)"/>
<path d="M0 0 C2.64 0 5.28 0 8 0 C8 15.18 8 30.36 8 46 C5.36 46 2.72 46 0 46 C0 30.82 0 15.64 0 0 Z " fill="#9B74EB" transform="translate(1360,1078)"/>
<path d="M0 0 C2.64 0 5.28 0 8 0 C8 15.18 8 30.36 8 46 C5.36 46 2.72 46 0 46 C0 30.82 0 15.64 0 0 Z " fill="#9B74EB" transform="translate(1153,1078)"/>
<path d="M0 0 C2.64 0 5.28 0 8 0 C8 15.18 8 30.36 8 46 C5.36 46 2.72 46 0 46 C0 30.82 0 15.64 0 0 Z " fill="#9B74EB" transform="translate(475,1078)"/>
<path d="M0 0 C2.9375 2.4375 2.9375 2.4375 5 5 C5.33 5.33 5.66 5.66 6 6 C6.1273437 10.48431736 5.79286106 13.98414676 3 17.5625 C-1.10346073 19.5287416 -4.5305611 19.79363868 -9 19 C-11.89115314 17.33758695 -12.69207311 16.08584747 -13.59375 12.90625 C-14.31784262 8.7287926 -14.42885043 6.7098214 -12.1875 3 C-8.50284193 -0.36883023 -4.87415967 -0.86838477 0 0 Z " fill="#9E77EB" transform="translate(788,579)"/>
<path d="M0 0 C2.4375 1.5 2.4375 1.5 4 4 C4.32111824 6.75845833 4.18630402 9.20543968 4 12 C3.34 12 2.68 12 2 12 C2 12.66 2 13.32 2 14 C-1.19267515 15.59633757 -4.52693615 15.36932376 -8 15 C-10 14 -10 14 -11 12 C-11.75471698 5.20754717 -11.75471698 5.20754717 -9.4375 1.5 C-6.05111671 -0.58392818 -3.90614682 -0.55802097 0 0 Z " fill="#D799FD" transform="translate(771,551)"/>
<path d="M0 0 C0.99 0.33 1.98 0.66 3 1 C5.52097973 6.22744961 5.33268556 11.57381954 5.3125 17.25 C5.32861328 18.14074219 5.34472656 19.03148437 5.36132812 19.94921875 C5.36681853 27.51500155 4.25528001 34.61707998 0 41 C-0.66 41 -1.32 41 -2 41 C-1.70833333 39.6875 -1.41666667 38.375 -1.125 37.0625 C-0.94453125 36.23363281 -0.7640625 35.40476562 -0.578125 34.55078125 C-0.22183902 32.97878972 0.15857552 31.41177055 0.578125 29.85546875 C3.16209296 19.90719209 2.50176251 9.89536421 0 0 Z " fill="#F5F3F1" transform="translate(818,613)"/>
<path d="M0 0 C1.875 1.1875 1.875 1.1875 3 3 C3.42822025 5.85480169 3.40659584 7.34492892 1.875 9.8125 C-0.87155972 11.55198782 -2.81846974 11.39769128 -6 11 C-7.875 9.8125 -7.875 9.8125 -9 8 C-9.42822025 5.14519831 -9.40659584 3.65507108 -7.875 1.1875 C-5.12844028 -0.55198782 -3.18153026 -0.39769128 0 0 Z " fill="#A17AEC" transform="translate(750,569)"/>
<path d="M0 0 C2.25 1.5625 2.25 1.5625 3.3125 4.4375 C3.25 7.5625 3.25 7.5625 1.625 10 C-0.75 11.5625 -0.75 11.5625 -3.375 11.4375 C-5.75 10.5625 -5.75 10.5625 -7.75 8.5625 C-8.1875 5.625 -8.1875 5.625 -7.75 2.5625 C-5.00430386 0.05214925 -3.69852474 -0.58840166 0 0 Z " fill="#9C74EB" transform="translate(1366.75,1060.4375)"/>
<path d="M0 0 C2.25 1.5625 2.25 1.5625 3.3125 4.4375 C3.25 7.5625 3.25 7.5625 1.625 10 C-0.75 11.5625 -0.75 11.5625 -3.375 11.4375 C-5.75 10.5625 -5.75 10.5625 -7.75 8.5625 C-8.1875 5.625 -8.1875 5.625 -7.75 2.5625 C-5.00430386 0.05214925 -3.69852474 -0.58840166 0 0 Z " fill="#9C74EB" transform="translate(1159.75,1060.4375)"/>
<path d="M0 0 C1 1 1 1 1.25 3.875 C1 7 1 7 -0.125 8.9375 C-2 10 -2 10 -5.0625 9.875 C-8 9 -8 9 -10 6 C-9.875 2.9375 -9.875 2.9375 -9 0 C-5.73663207 -2.79717251 -3.60382633 -1.85061352 0 0 Z " fill="#9B73EB" transform="translate(678,1062)"/>
<path d="M0 0 C2.25 1.5625 2.25 1.5625 3.3125 4.4375 C3.25 7.5625 3.25 7.5625 1.625 10 C-0.75 11.5625 -0.75 11.5625 -3.375 11.4375 C-5.75 10.5625 -5.75 10.5625 -7.75 8.5625 C-8.1875 5.625 -8.1875 5.625 -7.75 2.5625 C-5.00430386 0.05214925 -3.69852474 -0.58840166 0 0 Z " fill="#9C74EB" transform="translate(481.75,1060.4375)"/>
<path d="M0 0 C0.66 0 1.32 0 2 0 C2.30300877 8.4747766 1.13910141 16.69029576 0 25.0625 C-0.19324303 26.51490292 -0.38595565 27.96737651 -0.578125 29.41992188 C-1.04597147 32.94745031 -1.52098713 36.47396841 -2 40 C-2.66 40 -3.32 40 -4 40 C-4.21652895 31.72378221 -3.56553102 23.71085858 -2.5625 15.5 C-2.42779297 14.3346875 -2.29308594 13.169375 -2.15429688 11.96875 C-1.1401898 3.42056941 -1.1401898 3.42056941 0 0 Z " fill="#F5F2F3" transform="translate(792,502)"/>
<path d="M0 0 C0.99 0.33 1.98 0.66 3 1 C5.66499715 6.38294126 5.22813935 12.01985854 5.125 17.875 C5.11597656 18.84953125 5.10695313 19.8240625 5.09765625 20.828125 C5.07421623 23.21900728 5.04140442 25.60937261 5 28 C4.67 28 4.34 28 4 28 C3.67 21.4 3.34 14.8 3 8 C2.34 7.67 1.68 7.34 1 7 C0.59270772 4.67843403 0.25561323 2.3431213 0 0 Z " fill="#E7E0F0" transform="translate(818,613)"/>
<path d="M0 0 C-1.49558852 4.62272814 -3.68171219 7.52369849 -7 11 C-9.3125 11.875 -9.3125 11.875 -11 12 C-9.56438314 8.81293058 -7.79733671 6.37830895 -5.5 3.75 C-4.8915625 3.04359375 -4.283125 2.3371875 -3.65625 1.609375 C-2 0 -2 0 0 0 Z " fill="#ECE7F0" transform="translate(813,662)"/>
<path d="M0 0 C0.99 0.99 1.98 1.98 3 3 C2.57742724 4.4835001 2.13643678 5.96176424 1.6875 7.4375 C1.44386719 8.26121094 1.20023438 9.08492187 0.94921875 9.93359375 C0.63597656 10.61550781 0.32273437 11.29742188 0 12 C-0.99 12.33 -1.98 12.66 -3 13 C-2.68817931 11.58318366 -2.37551263 10.16655349 -2.0625 8.75 C-1.88847656 7.96109375 -1.71445312 7.1721875 -1.53515625 6.359375 C-1.052444 4.23121297 -0.53836822 2.11467158 0 0 Z " fill="#E7E0F0" transform="translate(819,641)"/>
<path d="M0 0 C2.97 0 5.94 0 9 0 C8.67 1.98 8.34 3.96 8 6 C7.67 4.68 7.34 3.36 7 2 C4.69 2 2.38 2 0 2 C-0.33 3.98 -0.66 5.96 -1 8 C-1.625 6.25 -1.625 6.25 -2 4 C-1.34 2.68 -0.68 1.36 0 0 Z " fill="#D7C8EF" transform="translate(194,1065)"/>
<path d="M0 0 C0.99 0 1.98 0 3 0 C3.33 1.65 3.66 3.3 4 5 C2.68 5.33 1.36 5.66 0 6 C-0.38218767 4.34385343 -0.71395102 2.67542976 -1 1 C-0.67 0.67 -0.34 0.34 0 0 Z " fill="#A782ED" transform="translate(783,566)"/>
<path d="M0 0 C1.65 0 3.3 0 5 0 C4.67 1.65 4.34 3.3 4 5 C2.68 4.67 1.36 4.34 0 4 C0 2.68 0 1.36 0 0 Z " fill="#D99DFD" transform="translate(725,577)"/>
<path d="M0 0 C2.475 0.495 2.475 0.495 5 1 C4.67 2.32 4.34 3.64 4 5 C2.68 4.67 1.36 4.34 0 4 C0 2.68 0 1.36 0 0 Z " fill="#D79AFD" transform="translate(804,589)"/>
<path d="M0 0 C1.98 0.495 1.98 0.495 4 1 C3.67 2.32 3.34 3.64 3 5 C1.68 5 0.36 5 -1 5 C-0.67 3.35 -0.34 1.7 0 0 Z " fill="#A27CEC" transform="translate(759,588)"/>
<path d="M0 0 C0.33 0 0.66 0 1 0 C1 3.3 1 6.6 1 10 C0.67 10 0.34 10 0 10 C0 6.7 0 3.4 0 0 Z " fill="#FFFFFF" transform="translate(191,848)"/>
<path d="M0 0 C0 0.99 0 1.98 0 3 C-0.66 2.67 -1.32 2.34 -2 2 C-1.34 1.34 -0.68 0.68 0 0 Z " fill="#FFFFFF" transform="translate(137,919)"/>
<path d="M0 0 C4 1 4 1 4 1 Z " fill="#FFFFFF" transform="translate(154,946)"/>
<path d="M0 0 C0.99 0.33 1.98 0.66 3 1 C2.01 1 1.02 1 0 1 C0 0.67 0 0.34 0 0 Z " fill="#FFFFFF" transform="translate(178,887)"/>
<path d="M0 0 C0.99 0 1.98 0 3 0 C2.67 0.66 2.34 1.32 2 2 C1.34 1.34 0.68 0.68 0 0 Z " fill="#FFFFFF" transform="translate(153,790)"/>
<path d="M0 0 C3 1 3 1 3 1 Z " fill="#FFFFEE" transform="translate(189,941)"/>
<path d="M0 0 C3 1 3 1 3 1 Z " fill="#F7F7CD" transform="translate(201,886)"/>
<path d="" fill="#FFFFFF" transform="translate(0,0)"/>
<path d="M0 0 C2 1 2 1 2 1 Z " fill="#FFFFFF" transform="translate(144,1045)"/>
<path d="M0 0 C2 1 2 1 2 1 Z " fill="#FFFFFF" transform="translate(142,1044)"/>
<path d="M0 0 C2 1 2 1 2 1 Z " fill="#FFFFFF" transform="translate(220,1025)"/>
<path d="" fill="#FFFFFF" transform="translate(0,0)"/>
<path d="M0 0 C2 1 2 1 2 1 Z " fill="#FFFFFF" transform="translate(229,969)"/>
<path d="M0 0 C2 1 2 1 2 1 Z " fill="#EAEAEA" transform="translate(206,948)"/>
<path d="M0 0 C2 1 2 1 2 1 Z " fill="#FFFFFF" transform="translate(204,947)"/>
<path d="M0 0 C2 1 2 1 2 1 Z " fill="#FFFFFF" transform="translate(202,946)"/>
<path d="M0 0 C2 1 2 1 2 1 Z " fill="#FFFFFF" transform="translate(200,945)"/>
<path d="M0 0 C2 1 2 1 2 1 Z " fill="#FFFFFF" transform="translate(197,944)"/>
<path d="M0 0 C2 1 2 1 2 1 Z " fill="#FFFFFF" transform="translate(240,942)"/>
<path d="M0 0 C2 1 2 1 2 1 Z " fill="#FFFFFF" transform="translate(161,937)"/>
<path d="M0 0 C2 1 2 1 2 1 Z " fill="#FFFFFF" transform="translate(142,886)"/>
<path d="M0 0 C2 1 2 1 2 1 Z " fill="#FFFFFF" transform="translate(199,880)"/>
<path d="" fill="#FFFFFF" transform="translate(0,0)"/>
<path d="" fill="#EAEAEA" transform="translate(0,0)"/>
<path d="" fill="#FFFFFF" transform="translate(0,0)"/>
<path d="" fill="#FFFFFF" transform="translate(0,0)"/>
<path d="" fill="#FFFFFF" transform="translate(0,0)"/>
<path d="" fill="#FFFFFF" transform="translate(0,0)"/>
<path d="M0 0 C2 1 2 1 2 1 Z " fill="#FFFFFF" transform="translate(167,806)"/>
<path d="" fill="#FFFFFF" transform="translate(0,0)"/>
<path d="" fill="#FFFFFF" transform="translate(0,0)"/>
<path d="" fill="#FFFFFF" transform="translate(0,0)"/>
<path d="" fill="#FFFFFF" transform="translate(0,0)"/>
<path d="" fill="#FFFFFF" transform="translate(0,0)"/>
<path d="" fill="#FFFFFF" transform="translate(0,0)"/>
<path d="" fill="#FFFFFF" transform="translate(0,0)"/>
<path d="" fill="#FFFFFF" transform="translate(0,0)"/>
<path d="" fill="#FFFFFF" transform="translate(0,0)"/>
<path d="" fill="#FFFFFF" transform="translate(0,0)"/>
<path d="" fill="#FFFFFF" transform="translate(0,0)"/>
<path d="" fill="#FFFFFF" transform="translate(0,0)"/>
<path d="" fill="#FFFFFF" transform="translate(0,0)"/>
<path d="" fill="#808080" transform="translate(0,0)"/>
<path d="" fill="#FFFFFF" transform="translate(0,0)"/>
<path d="" fill="#FFFFFF" transform="translate(0,0)"/>
<path d="" fill="#000000" transform="translate(0,0)"/>
<path d="" fill="#FFFFFF" transform="translate(0,0)"/>
<path d="" fill="#FFFFFF" transform="translate(0,0)"/>
<path d="" fill="#FFFFFF" transform="translate(0,0)"/>
<path d="" fill="#FFFFFF" transform="translate(0,0)"/>
<path d="" fill="#FFFFFF" transform="translate(0,0)"/>
<path d="" fill="#FFFFFF" transform="translate(0,0)"/>
<path d="" fill="#FFFFFF" transform="translate(0,0)"/>
<path d="" fill="#FFFFFF" transform="translate(0,0)"/>
<path d="" fill="#FFFFFF" transform="translate(0,0)"/>
<path d="" fill="#FFFFFF" transform="translate(0,0)"/>
<path d="" fill="#FFFFFF" transform="translate(0,0)"/>
<path d="" fill="#808080" transform="translate(0,0)"/>
<path d="" fill="#FFFFFF" transform="translate(0,0)"/>
<path d="" fill="#FFFFFF" transform="translate(0,0)"/>
<path d="" fill="#FFFFFF" transform="translate(0,0)"/>
<path d="" fill="#FFFFFF" transform="translate(0,0)"/>
<path d="" fill="#FFFFFF" transform="translate(0,0)"/>
<path d="" fill="#FFFFFF" transform="translate(0,0)"/>
<path d="" fill="#FFFFFF" transform="translate(0,0)"/>
<path d="" fill="#FFFFFF" transform="translate(0,0)"/>
<path d="" fill="#FFFFFF" transform="translate(0,0)"/>
<path d="" fill="#FFFFFF" transform="translate(0,0)"/>
<path d="" fill="#E6E6E6" transform="translate(0,0)"/>
<path d="" fill="#FFFFFF" transform="translate(0,0)"/>
<path d="" fill="#FFFFFF" transform="translate(0,0)"/>
<path d="" fill="#FFFFFF" transform="translate(0,0)"/>
<path d="" fill="#FFFFFF" transform="translate(0,0)"/>
<path d="" fill="#FFFFFF" transform="translate(0,0)"/>
<path d="" fill="#FFFFFF" transform="translate(0,0)"/>
<path d="" fill="#FFFFFF" transform="translate(0,0)"/>
<path d="" fill="#FFFFFF" transform="translate(0,0)"/>
<path d="" fill="#FFFFFF" transform="translate(0,0)"/>
<path d="" fill="#FFFFFF" transform="translate(0,0)"/>
<path d="" fill="#FFFFFF" transform="translate(0,0)"/>
<path d="" fill="#FFFFFF" transform="translate(0,0)"/>
<path d="" fill="#FFFFFF" transform="translate(0,0)"/>
<path d="" fill="#FFFFFF" transform="translate(0,0)"/>
</svg>
